# xmcd CD database file
#
# Track frame offsets:
#       183
#       10538
#       18118
#       31128
#       41743
#       51518
#       64848
#       74208
#       81518
#       89700
#       102070
#       110840
#       120370
#       128930
#       136835
#       144470
#       151530
#       160788
#       171725
#       178048
#       185035
#       193775
#       202385
#       210465
#       219305
#       227288
#       235505
#       241618
#       251950
#
# Disc length: 3529 seconds
#
# Revision: 2
# Processed by: cddbd v1.5.2PL0 Copyright (c) Steve Scherf et al.
# Submitted via: CDDBEditor PBVER-PBREV
#
DISCID=9f0dc71d
DTITLE=Giovanni Pierluigi da Palestrina (1525-1596) / Il  Primo Libro de Madrigali a quattro voci
DYEAR=1992
DGENRE=Renaissance
TTITLE0=Deh hor foss'io col vago della luna
TTITLE1=S'il dissi mai ch'io veng'in odio a quella
TTITLE2=Queste saranno ben lagrim e questi
TTITLE3=Che non fia che giamai dal cor si sgombri
TTITLE4=Rime da i sospir miei nati e dal pianto
TTITLE5=Lontan dalla mia diva
TTITLE6=Nessun visse giamai piu di me lieto
TTITLE7=La ver l'aurora che si dolce l'aura
TTITLE8=Chiara si chiaro e de' vostr'occhi il sole
TTITLE9=Chi stinguera il mio foco
TTITLE10=Dona vostra mercede
TTITLE11=Gia fu chi m'ebbe cara e volentieri
TTITLE12=Che debbo far che mi consigli Amore
TTITLE13=Over de sensi e priva
TTITLE14=Amor fortuna e la mia mente schiva
TTITLE15=Ne spero i dolci di tornin'indietro
TTITLE16=Gitene liete rime ov'or si siede
TTITLE17=Mentr'a le dolci & purpuree labbra
TTITLE18=Amor che meco in quest'ombre ti stavi
TTITLE19=Ecc'ove gionse prima e poi s'assise
TTITLE20=Vaghi pensier che cosi passo passo
TTITLE21=Mentre ch'al mar descenderanno i fiumi
TTITLE22=Quai rime fur si chiare - Sestina
TTITLE23=Ecc'oscurati i chiari raggi al Sole
TTITLE24=Rara belta non mai piu vista in terra
TTITLE25=Questo doglioso stil colmo di pianto
TTITLE26=Mai fu piu crud'o piu spietata morte
TTITLE27=Privo di fed'oltra l'usato corso
TTITLE28=Ma voi fioriti e honorati colli
EXTD=
EXTT0=
EXTT1=
EXTT2=
EXTT3=
EXTT4=
EXTT5=
EXTT6=
EXTT7=
EXTT8=
EXTT9=
EXTT10=
EXTT11=
EXTT12=
EXTT13=
EXTT14=
EXTT15=
EXTT16=
EXTT17=
EXTT18=
EXTT19=
EXTT20=
EXTT21=
EXTT22=
EXTT23=
EXTT24=
EXTT25=
EXTT26=
EXTT27=
EXTT28=
PLAYORDER=
